<?xml version="1.0" encoding="utf-8"?>
<!-- Generator: Adobe Illustrator 27.3.1, SVG Export Plug-In . SVG Version: 6.00 Build 0)  -->
<svg version="1.1" xmlns="http://www.w3.org/2000/svg" xmlns:xlink="http://www.w3.org/1999/xlink" x="0px" y="0px"
	 viewBox="0 0 286 106" style="enable-background:new 0 0 286 106;" xml:space="preserve">
<style type="text/css">
	.st0{font-family:'ArialMT';}
	.st1{font-size:27.0257px;}
	.st2{fill:#3B00A2;}
	.st3{fill:#FFFFFF;}
	.st4{clip-path:url(#SVGID_00000101805467741318746400000010760809745996692670_);}
	.st5{fill:#BFBFBF;}
	.st6{fill:#070707;fill-opacity:0;}
	.st7{opacity:6.090000e-02;fill:#070707;enable-background:new    ;}
	.st8{opacity:0.1218;fill:#070707;enable-background:new    ;}
	.st9{opacity:0.1827;fill:#070707;enable-background:new    ;}
	.st10{opacity:0.2436;fill:#070707;enable-background:new    ;}
	.st11{opacity:0.3045;fill:#070707;enable-background:new    ;}
	.st12{opacity:0.3655;fill:#070707;enable-background:new    ;}
	.st13{opacity:0.4264;fill:#070707;enable-background:new    ;}
	.st14{opacity:0.4873;fill:#070707;enable-background:new    ;}
	.st15{opacity:0.5482;fill:#070707;enable-background:new    ;}
	.st16{opacity:0.6091;fill:#070707;enable-background:new    ;}
	.st17{opacity:0.67;fill:#070707;enable-background:new    ;}
</style>
<g id="Layer_1">
	<g>
		<text transform="matrix(1.1315 0 0 1 64.3169 76.9462)" class="st0 st1">Bakground</text>
	</g>
	<g>
		<text transform="matrix(1.1315 0 0 1 89.729 101.2811)" class="st2 st0 st1">remover</text>
	</g>
	<g>
		<rect x="124.4" y="4.7" class="st3" width="73.6" height="43.4"/>
		<g>
			<g>
				<defs>
					<path id="SVGID_1_" d="M171.2,33.6v-1.3l-3.1-1.8c-0.2,0.2-0.4,0.5-0.6,0.7c-0.7,0.7-1.6,1.3-2.6,1.8c-1.1,0.5-2.3,0.7-3.6,0.7
						c-1.6,0-3-0.3-4.3-0.9s-2.2-1.5-2.9-2.6c-0.7-1.1-1-2.3-1-3.7s0.3-2.7,1-3.8c0.1-0.1,0.2-0.2,0.2-0.3L124.4,4.7v43.5h73.6v-0.1
						l-24.7-14.5L171.2,33.6L171.2,33.6z M150.1,32.6c-0.9,0.7-2.3,1-3.9,1h-7.5V19.4h7.2c1.6,0,2.9,0.3,3.8,1
						c0.9,0.7,1.4,1.6,1.4,2.7c0,0.8-0.2,1.5-0.7,2.1c-0.5,0.6-1.2,0.9-2,1.2c0.9,0.2,1.7,0.6,2.2,1.2c0.6,0.6,0.8,1.4,0.8,2.2
						C151.5,30.9,151,31.9,150.1,32.6z"/>
				</defs>
				<clipPath id="SVGID_00000155867634491324024120000001551253200482989449_">
					<use xlink:href="#SVGID_1_"  style="overflow:visible;"/>
				</clipPath>
				<g style="clip-path:url(#SVGID_00000155867634491324024120000001551253200482989449_);">
					<rect x="111.6" y="0.7" class="st5" width="8.8" height="9.7"/>
					<rect x="120.1" y="10.4" class="st5" width="8.8" height="9.7"/>
					<rect x="120.1" y="10.4" class="st5" width="8.8" height="9.7"/>
					<rect x="129.2" y="0.7" class="st5" width="8.8" height="9.7"/>
					<rect x="137.7" y="10.4" class="st5" width="8.8" height="9.7"/>
					<rect x="137.7" y="10.4" class="st5" width="8.8" height="9.7"/>
					<rect x="146.8" y="0.7" class="st5" width="8.8" height="9.7"/>
					<rect x="155.3" y="10.4" class="st5" width="8.8" height="9.7"/>
					<rect x="155.3" y="10.4" class="st5" width="8.8" height="9.7"/>
					<rect x="164.4" y="0.7" class="st5" width="8.8" height="9.7"/>
					<rect x="172.9" y="10.4" class="st5" width="8.8" height="9.7"/>
					<rect x="172.9" y="10.4" class="st5" width="8.8" height="9.7"/>
					<rect x="182.1" y="0.7" class="st5" width="8.8" height="9.7"/>
					<rect x="190.6" y="10.4" class="st5" width="8.8" height="9.7"/>
					<rect x="190.6" y="10.4" class="st5" width="8.8" height="9.7"/>
					<rect x="199.7" y="0.7" class="st5" width="8.8" height="9.7"/>
					<rect x="208.2" y="10.4" class="st5" width="8.8" height="9.7"/>
					<rect x="208.2" y="10.4" class="st5" width="8.8" height="9.7"/>
					<rect x="111.4" y="20.2" class="st5" width="8.8" height="9.7"/>
					<rect x="119.9" y="29.9" class="st5" width="8.8" height="9.7"/>
					<rect x="119.9" y="29.9" class="st5" width="8.8" height="9.7"/>
					<rect x="129.1" y="20.2" class="st5" width="8.8" height="9.7"/>
					<rect x="137.6" y="29.9" class="st5" width="8.8" height="9.7"/>
					<rect x="137.6" y="29.9" class="st5" width="8.8" height="9.7"/>
					<rect x="146.7" y="20.2" class="st5" width="8.8" height="9.7"/>
					<rect x="155.2" y="29.9" class="st5" width="8.8" height="9.7"/>
					<rect x="155.2" y="29.9" class="st5" width="8.8" height="9.7"/>
					<rect x="164.3" y="20.2" class="st5" width="8.8" height="9.7"/>
					<rect x="172.8" y="29.9" class="st5" width="8.8" height="9.7"/>
					<rect x="172.8" y="29.9" class="st5" width="8.8" height="9.7"/>
					<rect x="181.9" y="20.2" class="st5" width="8.8" height="9.7"/>
					<rect x="190.4" y="29.9" class="st5" width="8.8" height="9.7"/>
					<rect x="190.4" y="29.9" class="st5" width="8.8" height="9.7"/>
					<rect x="199.5" y="20.2" class="st5" width="8.8" height="9.7"/>
					<rect x="208" y="29.9" class="st5" width="8.8" height="9.7"/>
					<rect x="208" y="29.9" class="st5" width="8.8" height="9.7"/>
					<rect x="111.3" y="39.7" class="st5" width="8.8" height="9.7"/>
					<rect x="128.9" y="39.7" class="st5" width="8.8" height="9.7"/>
					<rect x="146.5" y="39.7" class="st5" width="8.8" height="9.7"/>
					<rect x="164.1" y="39.7" class="st5" width="8.8" height="9.7"/>
					<rect x="181.7" y="39.7" class="st5" width="8.8" height="9.7"/>
					<rect x="199.4" y="39.7" class="st5" width="8.8" height="9.7"/>
				</g>
			</g>
		</g>
		<path class="st2" d="M124.4,4.7l29.9,17.6c0.7-0.9,1.6-1.7,2.7-2.2c1.2-0.6,2.7-0.9,4.2-0.9c1.9,0,3.5,0.4,4.9,1.2
			c1.3,0.8,2.2,2,2.6,3.4h-4.3c-0.3-0.5-0.7-0.8-1.2-1.1c-0.5-0.2-1.2-0.4-1.9-0.4c-1.3,0-2.3,0.4-3,1.1c-0.2,0.2-0.4,0.5-0.6,0.8
			l2.9,1.7v-0.4h8.5v3.2c-0.2,0.6-0.5,1.2-0.9,1.7l3.1,1.8V19.4h6.6c1.3,0,2.3,0.2,3.2,0.6c0.9,0.4,1.6,0.9,2,1.6
			c0.4,0.7,0.7,1.4,0.7,2.3c0,0.9-0.3,1.8-0.9,2.5c-0.6,0.7-1.5,1.3-2.7,1.6l3.7,5.6h-4.4l-3.3-5.4h-0.9v5.4h-1.7l24.7,14.5V4.7
			L124.4,4.7L124.4,4.7z"/>
		<path class="st2" d="M179.2,25.3c0.4-0.3,0.5-0.7,0.5-1.3c0-0.5-0.2-1-0.5-1.3c-0.4-0.3-0.9-0.5-1.6-0.5h-2.4v3.5h2.4
			C178.3,25.8,178.8,25.6,179.2,25.3z"/>
		<path class="st2" d="M164.1,28.1l1.1,0.6c0.1-0.2,0.2-0.4,0.3-0.6H164.1z"/>
		<path d="M148.4,26.3c0.8-0.2,1.5-0.6,2-1.2c0.5-0.6,0.7-1.2,0.7-2.1c0-1.1-0.5-2-1.4-2.7c-0.9-0.7-2.2-1-3.8-1h-7.2v14.2h7.5
			c1.7,0,3-0.3,3.9-1c0.9-0.7,1.4-1.6,1.4-2.8c0-0.8-0.3-1.6-0.8-2.2C150.1,26.9,149.3,26.5,148.4,26.3z M142.6,22.2h2.6
			c0.6,0,1.1,0.1,1.5,0.4c0.3,0.3,0.5,0.6,0.5,1.1s-0.2,0.9-0.5,1.1c-0.3,0.3-0.8,0.4-1.5,0.4h-2.6V22.2z M147,30.4
			c-0.4,0.3-0.9,0.4-1.5,0.4h-2.9v-3.1h2.8c0.7,0,1.2,0.1,1.5,0.4c0.4,0.3,0.6,0.7,0.6,1.2C147.5,29.8,147.3,30.1,147,30.4z"/>
		<path class="st3" d="M165.5,28.1c-0.1,0.2-0.2,0.4-0.3,0.6l3,1.7c0.4-0.5,0.7-1.1,0.9-1.7v-3.2h-8.5V26l3.6,2.1L165.5,28.1
			L165.5,28.1z"/>
		<path class="st3" d="M158.2,23.5c0.8-0.7,1.8-1.1,3-1.1c0.7,0,1.4,0.1,1.9,0.4c0.5,0.3,1,0.6,1.2,1.1h4.3
			c-0.4-1.5-1.3-2.6-2.6-3.4c-1.3-0.8-2.9-1.2-4.9-1.2c-1.6,0-3,0.3-4.2,0.9c-1.1,0.5-2,1.3-2.7,2.2l3.3,1.9
			C157.8,24,158,23.8,158.2,23.5z"/>
		<polygon points="164.1,28.1 160.5,26 160.5,28.1 		"/>
		<path d="M153.1,26.5c0,1.4,0.3,2.7,1,3.7c0.7,1.1,1.7,1.9,2.9,2.6s2.7,0.9,4.3,0.9c1.3,0,2.6-0.2,3.6-0.7c1.1-0.5,2-1.1,2.6-1.8
			c0.2-0.2,0.4-0.5,0.6-0.7l-3-1.7c-0.3,0.5-0.7,0.9-1.2,1.2c-0.7,0.4-1.5,0.6-2.4,0.6c-1.4,0-2.5-0.4-3.3-1.1
			c-0.8-0.7-1.2-1.8-1.2-3.1c0-0.8,0.2-1.6,0.5-2.2l-3.3-1.9c-0.1,0.1-0.2,0.2-0.2,0.3C153.4,23.8,153.1,25.1,153.1,26.5z"/>
		<path class="st3" d="M175.1,33.6v-5.4h0.9l3.3,5.4h4.4l-3.7-5.6c1.2-0.3,2.1-0.8,2.7-1.6c0.6-0.7,0.9-1.6,0.9-2.5
			c0-0.8-0.2-1.6-0.7-2.3c-0.4-0.7-1.1-1.2-2-1.6c-0.9-0.4-2-0.6-3.2-0.6h-6.6v12.9l2.2,1.3L175.1,33.6L175.1,33.6z M175.1,22.3h2.4
			c0.7,0,1.3,0.2,1.6,0.5s0.5,0.7,0.5,1.3c0,0.6-0.2,1-0.5,1.3c-0.4,0.3-0.9,0.5-1.6,0.5h-2.4V22.3z"/>
		<polygon points="173.4,33.6 171.2,32.3 171.2,33.6 		"/>
		<g>
			<path class="st6" d="M201.8,50.8h-70.3V9.5h70.3V50.8z M129.3,8.2v44h74.8v-44L129.3,8.2L129.3,8.2z"/>
			<path class="st7" d="M201.3,50.5H131V9.2h70.3V50.5z M128.8,7.9v44h74.8v-44H128.8z"/>
			<path class="st8" d="M200.8,50.2h-70.3V8.9h70.3V50.2z M128.2,7.5v44H203v-44L128.2,7.5L128.2,7.5z"/>
			<path class="st9" d="M200.2,49.9H130V8.6h70.3V49.9z M127.7,7.2v44h74.8v-44L127.7,7.2L127.7,7.2z"/>
			<path class="st10" d="M199.7,49.5h-70.3V8.2h70.3V49.5z M127.2,6.9v44H202v-44H127.2z"/>
			<path class="st11" d="M199.2,49.2h-70.3V7.9h70.3V49.2z M126.6,6.6v44h74.8v-44L126.6,6.6L126.6,6.6z"/>
			<path class="st12" d="M198.6,48.9h-70.3V7.6h70.3V48.9z M126.1,6.3v44h74.8v-44H126.1z"/>
			<path class="st13" d="M198.1,48.6h-70.3V7.3h70.3V48.6z M125.6,6v44h74.8V6H125.6z"/>
			<path class="st14" d="M197.6,48.3h-70.3V7h70.3V48.3z M125.1,5.7v44h74.8v-44L125.1,5.7L125.1,5.7z"/>
			<path class="st15" d="M197.1,48h-70.3V6.7h70.3V48z M124.5,5.3v44h74.8v-44H124.5z"/>
			<path class="st16" d="M196.5,47.7h-70.3V6.4h70.3V47.7z M124,5v44h74.8V5L124,5L124,5z"/>
			<path class="st17" d="M196,47.4h-70.3V6.1H196V47.4z M123.5,4.7v44h74.8v-44L123.5,4.7L123.5,4.7z"/>
		</g>
	</g>
</g>
<g id="Layer_2">
</g>
</svg>
